<mxfile host="Electron" modified="2024-05-24T15:38:43.004Z" agent="Mozilla/5.0 (Windows NT 10.0; Win64; x64) AppleWebKit/537.36 (KHTML, like Gecko) draw.io/24.4.8 Chrome/124.0.6367.207 Electron/30.0.6 Safari/537.36" etag="960QwCdzcNPRqxpvIj8H" version="24.4.8" type="device">
  <diagram name="Host messages summary" id="2YBvvXClWsGukQMizWep">
    <mxGraphModel dx="2074" dy="1196" grid="1" gridSize="10" guides="1" tooltips="1" connect="1" arrows="1" fold="1" page="1" pageScale="1" pageWidth="850" pageHeight="1100" math="0" shadow="0">
      <root>
        <mxCell id="0" />
        <mxCell id="1" parent="0" />
        <mxCell id="MP3uWI7jj2dFw3u_TR2O-50" value="" style="rounded=1;whiteSpace=wrap;html=1;fillColor=none;dashed=1;strokeWidth=4;strokeColor=#8C4FFF;arcSize=2;" parent="1" vertex="1">
          <mxGeometry x="25" y="1190" width="800" height="360" as="geometry" />
        </mxCell>
        <mxCell id="MP3uWI7jj2dFw3u_TR2O-1" value="" style="rounded=1;whiteSpace=wrap;html=1;fillColor=none;dashed=1;strokeWidth=4;strokeColor=#8C4FFF;arcSize=2;" parent="1" vertex="1">
          <mxGeometry x="25" y="190" width="800" height="780" as="geometry" />
        </mxCell>
        <mxCell id="HNctt18qTdj9UZDiPTxx-2" value="B2 Host" style="whiteSpace=wrap;html=1;" parent="1" vertex="1">
          <mxGeometry x="90" y="240" width="120" height="650" as="geometry" />
        </mxCell>
        <mxCell id="HNctt18qTdj9UZDiPTxx-3" value="&lt;font size=&quot;1&quot; style=&quot;&quot;&gt;&lt;span style=&quot;font-size: 30px;&quot;&gt;Host messages summary&lt;/span&gt;&lt;/font&gt;" style="text;html=1;align=left;verticalAlign=middle;resizable=0;points=[];autosize=1;strokeColor=none;fillColor=none;textShadow=0;" parent="1" vertex="1">
          <mxGeometry x="39" y="9" width="360" height="50" as="geometry" />
        </mxCell>
        <mxCell id="HNctt18qTdj9UZDiPTxx-4" value="&lt;font style=&quot;font-size: 22px;&quot;&gt;&lt;u&gt;Stats&lt;/u&gt;&lt;/font&gt;" style="text;html=1;align=left;verticalAlign=middle;resizable=0;points=[];autosize=1;strokeColor=none;fillColor=none;textShadow=0;" parent="1" vertex="1">
          <mxGeometry x="39" y="1074" width="70" height="40" as="geometry" />
        </mxCell>
        <mxCell id="HNctt18qTdj9UZDiPTxx-8" style="edgeStyle=orthogonalEdgeStyle;rounded=0;orthogonalLoop=1;jettySize=auto;html=1;entryX=0.994;entryY=0.04;entryDx=0;entryDy=0;exitX=-0.004;exitY=0.039;exitDx=0;exitDy=0;exitPerimeter=0;entryPerimeter=0;shadow=1;textShadow=1;fontStyle=1" parent="1" source="HNctt18qTdj9UZDiPTxx-5" target="HNctt18qTdj9UZDiPTxx-2" edge="1">
          <mxGeometry relative="1" as="geometry">
            <mxPoint x="584.6399999999999" y="265.9999999999999" as="sourcePoint" />
            <mxPoint x="261.20000000000005" y="265" as="targetPoint" />
            <Array as="points" />
          </mxGeometry>
        </mxCell>
        <mxCell id="HNctt18qTdj9UZDiPTxx-9" value="&lt;b&gt;/reboot&lt;/b&gt;" style="edgeLabel;html=1;align=center;verticalAlign=middle;resizable=0;points=[];textShadow=0;" parent="HNctt18qTdj9UZDiPTxx-8" vertex="1" connectable="0">
          <mxGeometry x="-0.0225" y="2" relative="1" as="geometry">
            <mxPoint x="-21" y="-1" as="offset" />
          </mxGeometry>
        </mxCell>
        <mxCell id="HNctt18qTdj9UZDiPTxx-5" value="Admin&lt;br&gt;Host" style="whiteSpace=wrap;html=1;" parent="1" vertex="1">
          <mxGeometry x="645" y="240" width="120" height="650" as="geometry" />
        </mxCell>
        <mxCell id="HNctt18qTdj9UZDiPTxx-10" style="edgeStyle=orthogonalEdgeStyle;rounded=0;orthogonalLoop=1;jettySize=auto;html=1;exitX=0;exitY=0.25;exitDx=0;exitDy=0;entryX=1.029;entryY=0.251;entryDx=0;entryDy=0;entryPerimeter=0;shadow=1;textShadow=1;fontStyle=1" parent="1" source="HNctt18qTdj9UZDiPTxx-5" target="HNctt18qTdj9UZDiPTxx-2" edge="1">
          <mxGeometry relative="1" as="geometry">
            <mxPoint x="584.52" y="403.9999999999999" as="sourcePoint" />
            <mxPoint x="261.20000000000005" y="403.9999999999999" as="targetPoint" />
            <Array as="points" />
          </mxGeometry>
        </mxCell>
        <mxCell id="HNctt18qTdj9UZDiPTxx-11" value="&lt;b&gt;/instances&lt;/b&gt;" style="edgeLabel;html=1;align=center;verticalAlign=middle;resizable=0;points=[];textShadow=0;" parent="HNctt18qTdj9UZDiPTxx-10" vertex="1" connectable="0">
          <mxGeometry x="-0.0225" y="2" relative="1" as="geometry">
            <mxPoint x="-15" y="-2" as="offset" />
          </mxGeometry>
        </mxCell>
        <mxCell id="HNctt18qTdj9UZDiPTxx-13" style="edgeStyle=orthogonalEdgeStyle;rounded=0;orthogonalLoop=1;jettySize=auto;html=1;entryX=1.045;entryY=0.136;entryDx=0;entryDy=0;exitX=-0.012;exitY=0.136;exitDx=0;exitDy=0;exitPerimeter=0;entryPerimeter=0;shadow=1;textShadow=1;fontStyle=1" parent="1" source="HNctt18qTdj9UZDiPTxx-5" target="HNctt18qTdj9UZDiPTxx-2" edge="1">
          <mxGeometry relative="1" as="geometry">
            <mxPoint x="585.3599999999999" y="327.4" as="sourcePoint" />
            <mxPoint x="260.84000000000003" y="328" as="targetPoint" />
          </mxGeometry>
        </mxCell>
        <mxCell id="HNctt18qTdj9UZDiPTxx-14" value="&lt;b&gt;/status&lt;/b&gt;" style="edgeLabel;html=1;align=center;verticalAlign=middle;resizable=0;points=[];textShadow=0;" parent="HNctt18qTdj9UZDiPTxx-13" vertex="1" connectable="0">
          <mxGeometry x="-0.0225" y="2" relative="1" as="geometry">
            <mxPoint x="-25" y="-4" as="offset" />
          </mxGeometry>
        </mxCell>
        <mxCell id="HNctt18qTdj9UZDiPTxx-22" value="Stats are independant, &lt;br&gt;so it uses distinct backup strategy" style="text;html=1;align=left;verticalAlign=middle;resizable=0;points=[];autosize=1;strokeColor=none;fillColor=none;fontSize=14;" parent="1" vertex="1">
          <mxGeometry x="40" y="1114" width="230" height="50" as="geometry" />
        </mxCell>
        <mxCell id="HNctt18qTdj9UZDiPTxx-25" style="edgeStyle=orthogonalEdgeStyle;rounded=0;orthogonalLoop=1;jettySize=auto;html=1;exitX=1;exitY=0.25;exitDx=0;exitDy=0;entryX=0;entryY=0.25;entryDx=0;entryDy=0;shadow=1;textShadow=1;fontStyle=1" parent="1" edge="1">
          <mxGeometry relative="1" as="geometry">
            <mxPoint x="263" y="1270" as="sourcePoint" />
            <mxPoint x="589" y="1270" as="targetPoint" />
          </mxGeometry>
        </mxCell>
        <mxCell id="HNctt18qTdj9UZDiPTxx-28" value="&lt;b&gt;/host/status&lt;/b&gt;" style="edgeLabel;html=1;align=center;verticalAlign=middle;resizable=0;points=[];textShadow=0;" parent="HNctt18qTdj9UZDiPTxx-25" vertex="1" connectable="0">
          <mxGeometry x="-0.0653" y="2" relative="1" as="geometry">
            <mxPoint as="offset" />
          </mxGeometry>
        </mxCell>
        <mxCell id="HNctt18qTdj9UZDiPTxx-27" style="edgeStyle=orthogonalEdgeStyle;rounded=0;orthogonalLoop=1;jettySize=auto;html=1;exitX=1;exitY=0.75;exitDx=0;exitDy=0;entryX=0;entryY=0.75;entryDx=0;entryDy=0;shadow=1;textShadow=1;fontStyle=1" parent="1" edge="1">
          <mxGeometry relative="1" as="geometry">
            <mxPoint x="263" y="1339.9999999999995" as="sourcePoint" />
            <mxPoint x="589" y="1339.9999999999995" as="targetPoint" />
          </mxGeometry>
        </mxCell>
        <mxCell id="HNctt18qTdj9UZDiPTxx-31" value="&lt;b&gt;/instance/status&lt;/b&gt;" style="edgeLabel;html=1;align=center;verticalAlign=middle;resizable=0;points=[];textShadow=0;" parent="HNctt18qTdj9UZDiPTxx-27" vertex="1" connectable="0">
          <mxGeometry x="-0.0819" y="-1" relative="1" as="geometry">
            <mxPoint x="12" as="offset" />
          </mxGeometry>
        </mxCell>
        <mxCell id="HNctt18qTdj9UZDiPTxx-23" value="B2 Host" style="whiteSpace=wrap;html=1;" parent="1" vertex="1">
          <mxGeometry x="143" y="1250" width="120" height="200" as="geometry" />
        </mxCell>
        <mxCell id="HNctt18qTdj9UZDiPTxx-24" value="Stats&lt;br&gt;Host" style="whiteSpace=wrap;html=1;" parent="1" vertex="1">
          <mxGeometry x="589" y="1250" width="120" height="200" as="geometry" />
        </mxCell>
        <mxCell id="MP3uWI7jj2dFw3u_TR2O-2" value="&lt;font color=&quot;#8c4fff&quot; style=&quot;font-size: 18px;&quot;&gt;Private&lt;/font&gt;" style="text;html=1;align=center;verticalAlign=middle;resizable=0;points=[];autosize=1;strokeColor=none;fillColor=none;textShadow=0;" parent="1" vertex="1">
          <mxGeometry x="27" y="928" width="80" height="40" as="geometry" />
        </mxCell>
        <mxCell id="MP3uWI7jj2dFw3u_TR2O-6" value="&lt;font style=&quot;font-size: 22px;&quot;&gt;&lt;u&gt;Admin&lt;/u&gt;&lt;/font&gt;" style="text;html=1;align=left;verticalAlign=middle;resizable=0;points=[];autosize=1;strokeColor=none;fillColor=none;textShadow=0;" parent="1" vertex="1">
          <mxGeometry x="39" y="114" width="90" height="40" as="geometry" />
        </mxCell>
        <mxCell id="MP3uWI7jj2dFw3u_TR2O-8" value="&lt;font style=&quot;font-size: 10px;&quot;&gt;Retrieve host instances&lt;/font&gt;" style="text;html=1;align=left;verticalAlign=middle;resizable=0;points=[];autosize=1;strokeColor=none;fillColor=none;fontSize=10;" parent="1" vertex="1">
          <mxGeometry x="390" y="406" width="130" height="30" as="geometry" />
        </mxCell>
        <mxCell id="MP3uWI7jj2dFw3u_TR2O-9" value="&lt;font style=&quot;font-size: 10px;&quot;&gt;Restore Database with a specific backup&lt;/font&gt;" style="text;html=1;align=left;verticalAlign=middle;resizable=0;points=[];autosize=1;strokeColor=none;fillColor=none;fontSize=10;" parent="1" vertex="1">
          <mxGeometry x="389" y="326" width="200" height="30" as="geometry" />
        </mxCell>
        <mxCell id="MP3uWI7jj2dFw3u_TR2O-10" style="edgeStyle=orthogonalEdgeStyle;rounded=0;orthogonalLoop=1;jettySize=auto;html=1;entryX=1.01;entryY=0.35;entryDx=0;entryDy=0;exitX=0;exitY=0.35;exitDx=0;exitDy=0;exitPerimeter=0;entryPerimeter=0;shadow=1;textShadow=1;fontStyle=1" parent="1" source="HNctt18qTdj9UZDiPTxx-5" target="HNctt18qTdj9UZDiPTxx-2" edge="1">
          <mxGeometry relative="1" as="geometry">
            <mxPoint x="585.3599999999999" y="467.4" as="sourcePoint" />
            <mxPoint x="260.84000000000003" y="468" as="targetPoint" />
          </mxGeometry>
        </mxCell>
        <mxCell id="MP3uWI7jj2dFw3u_TR2O-11" value="&lt;b&gt;/ip&lt;/b&gt;" style="edgeLabel;html=1;align=center;verticalAlign=middle;resizable=0;points=[];textShadow=0;" parent="MP3uWI7jj2dFw3u_TR2O-10" vertex="1" connectable="0">
          <mxGeometry x="-0.0225" y="2" relative="1" as="geometry">
            <mxPoint x="-35" y="-3" as="offset" />
          </mxGeometry>
        </mxCell>
        <mxCell id="MP3uWI7jj2dFw3u_TR2O-12" value="&lt;font style=&quot;font-size: 10px;&quot;&gt;{ ip_address }&lt;/font&gt;" style="text;html=1;align=left;verticalAlign=middle;resizable=0;points=[];autosize=1;strokeColor=none;fillColor=none;fontSize=10;" parent="1" vertex="1">
          <mxGeometry x="388" y="485" width="80" height="30" as="geometry" />
        </mxCell>
        <mxCell id="MP3uWI7jj2dFw3u_TR2O-13" value="&lt;font style=&quot;font-size: 10px;&quot;&gt;Set public ip&lt;/font&gt;" style="text;html=1;align=left;verticalAlign=middle;resizable=0;points=[];autosize=1;strokeColor=none;fillColor=none;fontSize=10;" parent="1" vertex="1">
          <mxGeometry x="390" y="468" width="80" height="30" as="geometry" />
        </mxCell>
        <mxCell id="MP3uWI7jj2dFw3u_TR2O-14" style="edgeStyle=orthogonalEdgeStyle;rounded=0;orthogonalLoop=1;jettySize=auto;html=1;entryX=0.994;entryY=0.459;entryDx=0;entryDy=0;exitX=0.004;exitY=0.459;exitDx=0;exitDy=0;exitPerimeter=0;entryPerimeter=0;shadow=1;textShadow=1;fontStyle=1" parent="1" source="HNctt18qTdj9UZDiPTxx-5" target="HNctt18qTdj9UZDiPTxx-2" edge="1">
          <mxGeometry relative="1" as="geometry">
            <mxPoint x="585.3599999999999" y="537.4" as="sourcePoint" />
            <mxPoint x="260.84000000000003" y="538" as="targetPoint" />
          </mxGeometry>
        </mxCell>
        <mxCell id="MP3uWI7jj2dFw3u_TR2O-15" value="&lt;b&gt;/instance/create&lt;/b&gt;" style="edgeLabel;html=1;align=center;verticalAlign=middle;resizable=0;points=[];textShadow=0;" parent="MP3uWI7jj2dFw3u_TR2O-14" vertex="1" connectable="0">
          <mxGeometry x="-0.0225" y="2" relative="1" as="geometry">
            <mxPoint y="-2" as="offset" />
          </mxGeometry>
        </mxCell>
        <mxCell id="MP3uWI7jj2dFw3u_TR2O-17" value="Create user instance" style="text;html=1;align=left;verticalAlign=middle;resizable=0;points=[];autosize=1;strokeColor=none;fillColor=none;fontSize=10;" parent="1" vertex="1">
          <mxGeometry x="388" y="537" width="120" height="30" as="geometry" />
        </mxCell>
        <mxCell id="MP3uWI7jj2dFw3u_TR2O-18" style="edgeStyle=orthogonalEdgeStyle;rounded=0;orthogonalLoop=1;jettySize=auto;html=1;entryX=1.021;entryY=0.566;entryDx=0;entryDy=0;entryPerimeter=0;exitX=0;exitY=0.566;exitDx=0;exitDy=0;exitPerimeter=0;shadow=1;textShadow=1;fontStyle=1" parent="1" source="HNctt18qTdj9UZDiPTxx-5" target="HNctt18qTdj9UZDiPTxx-2" edge="1">
          <mxGeometry relative="1" as="geometry">
            <mxPoint x="627" y="608" as="sourcePoint" />
            <mxPoint x="260.84000000000003" y="608" as="targetPoint" />
          </mxGeometry>
        </mxCell>
        <mxCell id="MP3uWI7jj2dFw3u_TR2O-19" value="&lt;b&gt;/instance/delete&lt;/b&gt;" style="edgeLabel;html=1;align=center;verticalAlign=middle;resizable=0;points=[];textShadow=0;" parent="MP3uWI7jj2dFw3u_TR2O-18" vertex="1" connectable="0">
          <mxGeometry x="-0.0225" y="2" relative="1" as="geometry">
            <mxPoint y="-2" as="offset" />
          </mxGeometry>
        </mxCell>
        <mxCell id="MP3uWI7jj2dFw3u_TR2O-20" value="&lt;font style=&quot;font-size: 10px;&quot;&gt;{ instance }&lt;/font&gt;" style="text;html=1;align=center;verticalAlign=middle;resizable=0;points=[];autosize=1;strokeColor=none;fillColor=none;fontSize=10;" parent="1" vertex="1">
          <mxGeometry x="382" y="631" width="70" height="30" as="geometry" />
        </mxCell>
        <mxCell id="MP3uWI7jj2dFw3u_TR2O-21" value="STOP and remove all related stuff &lt;br&gt;linked to the user and the instance" style="text;html=1;align=left;verticalAlign=middle;resizable=0;points=[];autosize=1;strokeColor=none;fillColor=none;fontSize=10;" parent="1" vertex="1">
          <mxGeometry x="391" y="608" width="180" height="40" as="geometry" />
        </mxCell>
        <mxCell id="MP3uWI7jj2dFw3u_TR2O-22" style="edgeStyle=orthogonalEdgeStyle;rounded=0;orthogonalLoop=1;jettySize=auto;html=1;entryX=1.021;entryY=0.673;entryDx=0;entryDy=0;exitX=-0.004;exitY=0.673;exitDx=0;exitDy=0;exitPerimeter=0;entryPerimeter=0;shadow=1;textShadow=1;fontStyle=1" parent="1" source="HNctt18qTdj9UZDiPTxx-5" target="HNctt18qTdj9UZDiPTxx-2" edge="1">
          <mxGeometry relative="1" as="geometry">
            <mxPoint x="585.3599999999999" y="677.4" as="sourcePoint" />
            <mxPoint x="260.84000000000003" y="678" as="targetPoint" />
          </mxGeometry>
        </mxCell>
        <mxCell id="MP3uWI7jj2dFw3u_TR2O-23" value="&lt;b&gt;/instance/backup&lt;/b&gt;" style="edgeLabel;html=1;align=center;verticalAlign=middle;resizable=0;points=[];textShadow=0;" parent="MP3uWI7jj2dFw3u_TR2O-22" vertex="1" connectable="0">
          <mxGeometry x="-0.0225" y="2" relative="1" as="geometry">
            <mxPoint x="2" as="offset" />
          </mxGeometry>
        </mxCell>
        <mxCell id="MP3uWI7jj2dFw3u_TR2O-25" value="&lt;font style=&quot;font-size: 10px;&quot;&gt;Create a backup of the instance&lt;/font&gt;" style="text;html=1;align=left;verticalAlign=middle;resizable=0;points=[];autosize=1;strokeColor=none;fillColor=none;fontSize=10;" parent="1" vertex="1">
          <mxGeometry x="389" y="679" width="160" height="30" as="geometry" />
        </mxCell>
        <mxCell id="MP3uWI7jj2dFw3u_TR2O-26" style="edgeStyle=orthogonalEdgeStyle;rounded=0;orthogonalLoop=1;jettySize=auto;html=1;entryX=1.033;entryY=0.782;entryDx=0;entryDy=0;exitX=0.004;exitY=0.781;exitDx=0;exitDy=0;exitPerimeter=0;entryPerimeter=0;shadow=1;textShadow=1;fontStyle=1" parent="1" source="HNctt18qTdj9UZDiPTxx-5" target="HNctt18qTdj9UZDiPTxx-2" edge="1">
          <mxGeometry relative="1" as="geometry">
            <mxPoint x="585.3599999999999" y="747.4" as="sourcePoint" />
            <mxPoint x="260.84000000000003" y="748" as="targetPoint" />
          </mxGeometry>
        </mxCell>
        <mxCell id="MP3uWI7jj2dFw3u_TR2O-27" value="&lt;b&gt;/instance/restore&lt;/b&gt;" style="edgeLabel;html=1;align=center;verticalAlign=middle;resizable=0;points=[];textShadow=0;" parent="MP3uWI7jj2dFw3u_TR2O-26" vertex="1" connectable="0">
          <mxGeometry x="-0.0225" y="2" relative="1" as="geometry">
            <mxPoint y="-2" as="offset" />
          </mxGeometry>
        </mxCell>
        <mxCell id="MP3uWI7jj2dFw3u_TR2O-28" value="&lt;font style=&quot;font-size: 10px;&quot;&gt;{ USERNAME, backup_id }&lt;/font&gt;" style="text;html=1;align=center;verticalAlign=middle;resizable=0;points=[];autosize=1;strokeColor=none;fillColor=none;fontSize=10;" parent="1" vertex="1">
          <mxGeometry x="378" y="759" width="140" height="30" as="geometry" />
        </mxCell>
        <mxCell id="MP3uWI7jj2dFw3u_TR2O-29" value="&lt;font style=&quot;font-size: 10px;&quot;&gt;Restore the instance with a specific backup&lt;/font&gt;" style="text;html=1;align=left;verticalAlign=middle;resizable=0;points=[];autosize=1;strokeColor=none;fillColor=none;fontSize=10;" parent="1" vertex="1">
          <mxGeometry x="387" y="746" width="220" height="30" as="geometry" />
        </mxCell>
        <mxCell id="MP3uWI7jj2dFw3u_TR2O-30" style="edgeStyle=orthogonalEdgeStyle;rounded=0;orthogonalLoop=1;jettySize=auto;html=1;entryX=1.029;entryY=0.89;entryDx=0;entryDy=0;entryPerimeter=0;exitX=0.004;exitY=0.891;exitDx=0;exitDy=0;exitPerimeter=0;shadow=1;textShadow=1;fontStyle=1" parent="1" source="HNctt18qTdj9UZDiPTxx-5" target="HNctt18qTdj9UZDiPTxx-2" edge="1">
          <mxGeometry relative="1" as="geometry">
            <mxPoint x="637" y="818" as="sourcePoint" />
            <mxPoint x="260.84000000000003" y="818" as="targetPoint" />
          </mxGeometry>
        </mxCell>
        <mxCell id="MP3uWI7jj2dFw3u_TR2O-31" value="&lt;b&gt;/instance/status&lt;/b&gt;" style="edgeLabel;html=1;align=center;verticalAlign=middle;resizable=0;points=[];textShadow=0;" parent="MP3uWI7jj2dFw3u_TR2O-30" vertex="1" connectable="0">
          <mxGeometry x="-0.0225" y="2" relative="1" as="geometry">
            <mxPoint y="-2" as="offset" />
          </mxGeometry>
        </mxCell>
        <mxCell id="MP3uWI7jj2dFw3u_TR2O-32" value="&lt;font style=&quot;font-size: 10px;&quot;&gt;{ instance }&lt;/font&gt;" style="text;html=1;align=left;verticalAlign=middle;resizable=0;points=[];autosize=1;strokeColor=none;fillColor=none;fontSize=10;" parent="1" vertex="1">
          <mxGeometry x="390" y="842" width="70" height="30" as="geometry" />
        </mxCell>
        <mxCell id="MP3uWI7jj2dFw3u_TR2O-33" value="&lt;font style=&quot;font-size: 10px;&quot;&gt;Give some informations about &lt;br&gt;the instance container&lt;/font&gt;" style="text;html=1;align=left;verticalAlign=middle;resizable=0;points=[];autosize=1;strokeColor=none;fillColor=none;fontSize=10;" parent="1" vertex="1">
          <mxGeometry x="390" y="818" width="160" height="40" as="geometry" />
        </mxCell>
        <mxCell id="MP3uWI7jj2dFw3u_TR2O-48" value="&lt;font style=&quot;font-size: 10px;&quot;&gt;{ USERNAME, APP_USERNAME, APP_PASSWORD, CIPTHER_KEY, HTTPS_REDIRECT }&amp;nbsp;&lt;/font&gt;" style="text;html=1;align=center;verticalAlign=middle;resizable=0;points=[];autosize=1;strokeColor=none;fillColor=none;fontSize=10;" parent="1" vertex="1">
          <mxGeometry x="202" y="549" width="440" height="30" as="geometry" />
        </mxCell>
        <mxCell id="MP3uWI7jj2dFw3u_TR2O-49" value="&lt;font style=&quot;font-size: 10px;&quot;&gt;{ instance }&lt;/font&gt;" style="text;html=1;align=center;verticalAlign=middle;resizable=0;points=[];autosize=1;strokeColor=none;fillColor=none;fontSize=10;" parent="1" vertex="1">
          <mxGeometry x="381" y="695" width="70" height="30" as="geometry" />
        </mxCell>
        <mxCell id="MP3uWI7jj2dFw3u_TR2O-51" value="&lt;font color=&quot;#8c4fff&quot; style=&quot;font-size: 18px;&quot;&gt;Private&lt;/font&gt;" style="text;html=1;align=center;verticalAlign=middle;resizable=0;points=[];autosize=1;strokeColor=none;fillColor=none;textShadow=0;" parent="1" vertex="1">
          <mxGeometry x="27" y="1508" width="80" height="40" as="geometry" />
        </mxCell>
        <mxCell id="MP3uWI7jj2dFw3u_TR2O-52" style="edgeStyle=orthogonalEdgeStyle;rounded=0;orthogonalLoop=1;jettySize=auto;html=1;exitX=1;exitY=0.75;exitDx=0;exitDy=0;entryX=0;entryY=0.75;entryDx=0;entryDy=0;shadow=1;textShadow=1;fontStyle=1;endArrow=classic;endFill=1;startArrow=none;startFill=0;" parent="1" edge="1">
          <mxGeometry relative="1" as="geometry">
            <mxPoint x="263" y="1419.9999999999995" as="sourcePoint" />
            <mxPoint x="589" y="1419.9999999999995" as="targetPoint" />
          </mxGeometry>
        </mxCell>
        <mxCell id="MP3uWI7jj2dFw3u_TR2O-53" value="&lt;b&gt;/instance/logs&lt;/b&gt;" style="edgeLabel;html=1;align=center;verticalAlign=middle;resizable=0;points=[];textShadow=0;" parent="MP3uWI7jj2dFw3u_TR2O-52" vertex="1" connectable="0">
          <mxGeometry x="-0.0819" y="-1" relative="1" as="geometry">
            <mxPoint x="8" y="-1" as="offset" />
          </mxGeometry>
        </mxCell>
        <mxCell id="MP3uWI7jj2dFw3u_TR2O-54" value="&lt;font style=&quot;font-size: 10px;&quot;&gt;{ host_ip_address }&lt;/font&gt;" style="text;html=1;align=left;verticalAlign=middle;resizable=0;points=[];autosize=1;strokeColor=none;fillColor=none;fontSize=10;" parent="1" vertex="1">
          <mxGeometry x="383" y="1295" width="110" height="30" as="geometry" />
        </mxCell>
        <mxCell id="MP3uWI7jj2dFw3u_TR2O-55" value="&lt;font style=&quot;font-size: 10px;&quot;&gt;Give some informations about &lt;br&gt;the host&lt;/font&gt;" style="text;html=1;align=left;verticalAlign=middle;resizable=0;points=[];autosize=1;strokeColor=none;fillColor=none;fontSize=10;" parent="1" vertex="1">
          <mxGeometry x="383" y="1269" width="160" height="40" as="geometry" />
        </mxCell>
        <mxCell id="MP3uWI7jj2dFw3u_TR2O-56" value="&lt;font style=&quot;font-size: 10px;&quot;&gt;{ instance }&lt;/font&gt;" style="text;html=1;align=left;verticalAlign=middle;resizable=0;points=[];autosize=1;strokeColor=none;fillColor=none;fontSize=10;" parent="1" vertex="1">
          <mxGeometry x="381" y="1367" width="70" height="30" as="geometry" />
        </mxCell>
        <mxCell id="MP3uWI7jj2dFw3u_TR2O-57" value="&lt;font style=&quot;font-size: 10px;&quot;&gt;Give some informations about &lt;br&gt;the instance container&lt;/font&gt;" style="text;html=1;align=left;verticalAlign=middle;resizable=0;points=[];autosize=1;strokeColor=none;fillColor=none;fontSize=10;" parent="1" vertex="1">
          <mxGeometry x="381" y="1341" width="160" height="40" as="geometry" />
        </mxCell>
        <mxCell id="MP3uWI7jj2dFw3u_TR2O-58" value="Transfert logs" style="text;html=1;align=left;verticalAlign=middle;resizable=0;points=[];autosize=1;strokeColor=none;fillColor=none;fontSize=10;" parent="1" vertex="1">
          <mxGeometry x="383" y="1423" width="80" height="30" as="geometry" />
        </mxCell>
        <mxCell id="x_ikKN0M_AUhyGE74kWF-1" value="&lt;font style=&quot;font-size: 10px;&quot;&gt;Reboot the host&lt;/font&gt;" style="text;html=1;align=left;verticalAlign=middle;resizable=0;points=[];autosize=1;strokeColor=none;fillColor=none;fontSize=10;" parent="1" vertex="1">
          <mxGeometry x="390" y="268" width="90" height="30" as="geometry" />
        </mxCell>
      </root>
    </mxGraphModel>
  </diagram>
</mxfile>
